<?xml version="1.0" encoding="UTF-8"?>
<svg width="512px" height="258px" viewBox="0 0 512 258" version="1.1" xmlns="http://www.w3.org/2000/svg" xmlns:xlink="http://www.w3.org/1999/xlink">
    <!-- Generator: Sketch 53.1 (72631) - https://sketchapp.com -->
    <title>arrows-alt</title>
    <desc>Created with Sketch.</desc>
    <g id="Page-1" stroke="none" stroke-width="1" fill="none" fill-rule="evenodd">
        <g id="arrows-alt" transform="translate(-1.000000, 0.000000)" fill="#000000" fill-rule="nonzero">
            <path d="M229.001,257.805 L229,157 L128.196,169 L128.196,220.162 C128.196,241.544 102.345,252.252 87.225,237.133 L8.029,157.937 C-1.344,148.564 -1.344,133.368 8.029,123.996 L87.225,44.8 C102.344,29.681 128.196,40.389 128.196,61.771 L128.196,113 L229,101 L229,0.196 L284.999,0.196 L284.999,101 L385.803,113 L385.803,61.838 C385.803,40.456 411.654,29.748 426.773,44.867 L505.969,124.063 C515.342,133.436 515.342,148.632 505.969,158.004 L426.773,237.2 C411.654,252.319 385.802,241.611 385.803,220.229 L385.803,169 L285,157 L285,257.804 L229.001,257.805 Z" id="Path"></path>
        </g>
    </g>
</svg>