<?xml version="1.0" encoding="UTF-8"?>
<svg width="512px" height="512px" viewBox="0 0 512 512" version="1.1" xmlns="http://www.w3.org/2000/svg" xmlns:xlink="http://www.w3.org/1999/xlink">
    <!-- Generator: Sketch 53.1 (72631) - https://sketchapp.com -->
    <title>Artboard</title>
    <desc>Created with Sketch.</desc>
    <g id="Artboard" stroke="none" stroke-width="1" fill="none" fill-rule="evenodd">
        <path d="M91,199 L421,199 C452.480231,199 478,224.519769 478,256 C478,287.480231 452.480231,313 421,313 L91,313 C59.5197693,313 34,287.480231 34,256 C34,224.519769 59.5197693,199 91,199 Z" id="Rectangle" fill="#0000FF"></path>
        <path d="M101,233 L411,233 C423.702549,233 434,243.297451 434,256 C434,268.702549 423.702549,279 411,279 L101,279 C88.2974508,279 78,268.702549 78,256 C78,243.297451 88.2974508,233 101,233 Z" id="Rectangle" fill="#D8D8D8"></path>
    </g>
</svg>