<?xml version="1.0" encoding="UTF-8"?>
<svg width="512px" height="512px" viewBox="0 0 512 512" version="1.1" xmlns="http://www.w3.org/2000/svg" xmlns:xlink="http://www.w3.org/1999/xlink">
    <!-- Generator: Sketch 53.1 (72631) - https://sketchapp.com -->
    <title>Artboard Copy</title>
    <desc>Created with Sketch.</desc>
    <g id="Artboard-Copy" stroke="none" stroke-width="1" fill="none" fill-rule="evenodd">
        <path d="M256,471 C137.258779,471 41,374.741221 41,256 C41,137.258779 137.258779,41 256,41 C374.741221,41 471,137.258779 471,256 C471,374.741221 374.741221,471 256,471 Z M256,419 C346.022414,419 419,346.022414 419,256 C419,165.977586 346.022414,93 256,93 C165.977586,93 93,165.977586 93,256 C93,346.022414 165.977586,419 256,419 Z" id="Shape" fill="#0000FF"></path>
        <path d="M256,452 C260.418278,452 264,448.418278 264,444 C264,439.581722 260.418278,436 256,436 C251.581722,436 248,439.581722 248,444 C248,448.418278 251.581722,452 256,452 Z" id="Path" fill="#D8D8D8"></path>
        <path d="M256,76 C260.418278,76 264,72.418278 264,68 C264,63.581722 260.418278,60 256,60 C251.581722,60 248,63.581722 248,68 C248,72.418278 251.581722,76 256,76 Z" id="Path" fill="#D8D8D8"></path>
        <path d="M203.536477,436.000334 C202.432092,437.913185 203.087483,440.359138 205.000334,441.463523 C206.913185,442.567908 209.359138,441.912517 210.463523,439.999666 C211.567908,438.086815 210.912517,435.640862 208.999666,434.536477 C207.086815,433.432092 204.640862,434.087483 203.536477,436.000334 Z" id="Path" fill="#D8D8D8"></path>
        <path d="M301.536477,72.0003339 C300.432092,73.913185 301.087483,76.3591382 303.000334,77.4635233 C304.913185,78.5679084 307.359138,77.9125172 308.463523,75.9996661 C309.567908,74.086815 308.912517,71.6408618 306.999666,70.5364767 C305.086815,69.4320916 302.640862,70.0874828 301.536477,72.0003339 Z" id="Path" fill="#D8D8D8"></path>
        <path d="M158.536477,417.000334 C157.432092,418.913185 158.087483,421.359138 160.000334,422.463523 C161.913185,423.567908 164.359138,422.912517 165.463523,420.999666 C166.567908,419.086815 165.912517,416.640862 163.999666,415.536477 C162.086815,414.432092 159.640862,415.087483 158.536477,417.000334 Z" id="Path" fill="#D8D8D8"></path>
        <path d="M346.536477,91.0003339 C345.432092,92.913185 346.087483,95.3591382 348.000334,96.4635233 C349.913185,97.5679084 352.359138,96.9125172 353.463523,94.9996661 C354.567908,93.086815 353.912517,90.6408618 351.999666,89.5364767 C350.086815,88.4320916 347.640862,89.0874828 346.536477,91.0003339 Z" id="Path" fill="#D8D8D8"></path>
        <path d="M89.5364767,348.000334 C88.4320916,349.913185 89.0874828,352.359138 91.0003339,353.463523 C92.913185,354.567908 95.3591382,353.912517 96.4635233,351.999666 C97.5679084,350.086815 96.9125172,347.640862 94.9996661,346.536477 C93.086815,345.432092 90.6408618,346.087483 89.5364767,348.000334 Z" id="Path" fill="#D8D8D8"></path>
        <path d="M415.536477,160.000334 C414.432092,161.913185 415.087483,164.359138 417.000334,165.463523 C418.913185,166.567908 421.359138,165.912517 422.463523,163.999666 C423.567908,162.086815 422.912517,159.640862 420.999666,158.536477 C419.086815,157.432092 416.640862,158.087483 415.536477,160.000334 Z" id="Path" fill="#D8D8D8"></path>
        <path d="M70.5364767,303.000334 C69.4320916,304.913185 70.0874828,307.359138 72.0003339,308.463523 C73.913185,309.567908 76.3591382,308.912517 77.4635233,306.999666 C78.5679084,305.086815 77.9125172,302.640862 75.9996661,301.536477 C74.086815,300.432092 71.6408618,301.087483 70.5364767,303.000334 Z" id="Path" fill="#D8D8D8"></path>
        <path d="M434.536477,205.000334 C433.432092,206.913185 434.087483,209.359138 436.000334,210.463523 C437.913185,211.567908 440.359138,210.912517 441.463523,208.999666 C442.567908,207.086815 441.912517,204.640862 439.999666,203.536477 C438.086815,202.432092 435.640862,203.087483 434.536477,205.000334 Z" id="Path" fill="#D8D8D8"></path>
        <path d="M70.5364767,205.000334 C69.4320916,206.913185 70.0874828,209.359138 72.0003339,210.463523 C73.913185,211.567908 76.3591382,210.912517 77.4635233,208.999666 C78.5679084,207.086815 77.9125172,204.640862 75.9996661,203.536477 C74.086815,202.432092 71.6408618,203.087483 70.5364767,205.000334 Z" id="Path" fill="#D8D8D8"></path>
        <path d="M434.536477,303.000334 C433.432092,304.913185 434.087483,307.359138 436.000334,308.463523 C437.913185,309.567908 440.359138,308.912517 441.463523,306.999666 C442.567908,305.086815 441.912517,302.640862 439.999666,301.536477 C438.086815,300.432092 435.640862,301.087483 434.536477,303.000334 Z" id="Path" fill="#D8D8D8"></path>
        <path d="M89.8200065,160.375355 C88.6465973,162.407759 89.3429505,165.006584 91.3753548,166.179993 C93.4077591,167.353403 96.0065843,166.65705 97.1799935,164.624645 C98.3534027,162.592241 97.6570495,159.993416 95.6246452,158.820007 C93.5922409,157.646597 90.9934157,158.34295 89.8200065,160.375355 Z" id="Path" fill="#D8D8D8"></path>
        <path d="M415.536477,348.000334 C414.432092,349.913185 415.087483,352.359138 417.000334,353.463523 C418.913185,354.567908 421.359138,353.912517 422.463523,351.999666 C423.567908,350.086815 422.912517,347.640862 420.999666,346.536477 C419.086815,345.432092 416.640862,346.087483 415.536477,348.000334 Z" id="Path" fill="#D8D8D8"></path>
        <path d="M158.536477,91.0003339 C157.432092,92.913185 158.087483,95.3591382 160.000334,96.4635233 C161.913185,97.5679084 164.359138,96.9125172 165.463523,94.9996661 C166.567908,93.086815 165.912517,90.6408618 163.999666,89.5364767 C162.086815,88.4320916 159.640862,89.0874828 158.536477,91.0003339 Z" id="Path" fill="#D8D8D8"></path>
        <path d="M346.536477,417.000334 C345.432092,418.913185 346.087483,421.359138 348.000334,422.463523 C349.913185,423.567908 352.359138,422.912517 353.463523,420.999666 C354.567908,419.086815 353.912517,416.640862 351.999666,415.536477 C350.086815,414.432092 347.640862,415.087483 346.536477,417.000334 Z" id="Path" fill="#D8D8D8"></path>
        <path d="M203.536477,72.0003339 C202.432092,73.913185 203.087483,76.3591382 205.000334,77.4635233 C206.913185,78.5679084 209.359138,77.9125172 210.463523,75.9996661 C211.567908,74.086815 210.912517,71.6408618 208.999666,70.5364767 C207.086815,69.4320916 204.640862,70.0874828 203.536477,72.0003339 Z" id="Path" fill="#D8D8D8"></path>
        <path d="M301.536477,436.000334 C300.432092,437.913185 301.087483,440.359138 303.000334,441.463523 C304.913185,442.567908 307.359138,441.912517 308.463523,439.999666 C309.567908,438.086815 308.912517,435.640862 306.999666,434.536477 C305.086815,433.432092 302.640862,434.087483 301.536477,436.000334 Z" id="Path" fill="#D8D8D8"></path>
        <path d="M123,397 C127.418278,397 131,393.418278 131,389 C131,384.581722 127.418278,381 123,381 C118.581722,381 115,384.581722 115,389 C115,393.418278 118.581722,397 123,397 Z" id="Path" fill="#D8D8D8"></path>
        <path d="M389,131 C393.418278,131 397,127.418278 397,123 C397,118.581722 393.418278,115 389,115 C384.581722,115 381,118.581722 381,123 C381,127.418278 384.581722,131 389,131 Z" id="Path" fill="#D8D8D8"></path>
        <path d="M68,264 C72.418278,264 76,260.418278 76,256 C76,251.581722 72.418278,248 68,248 C63.581722,248 60,251.581722 60,256 C60,260.418278 63.581722,264 68,264 Z" id="Path" fill="#D8D8D8"></path>
        <path d="M444,264 C448.418278,264 452,260.418278 452,256 C452,251.581722 448.418278,248 444,248 C439.581722,248 436,251.581722 436,256 C436,260.418278 439.581722,264 444,264 Z" id="Path" fill="#D8D8D8"></path>
        <path d="M123,131 C127.418278,131 131,127.418278 131,123 C131,118.581722 127.418278,115 123,115 C118.581722,115 115,118.581722 115,123 C115,127.418278 118.581722,131 123,131 Z" id="Path" fill="#D8D8D8"></path>
        <path d="M389,397 C393.418278,397 397,393.418278 397,389 C397,384.581722 393.418278,381 389,381 C384.581722,381 381,384.581722 381,389 C381,393.418278 384.581722,397 389,397 Z" id="Path" fill="#D8D8D8"></path>
    </g>
</svg>